<mxfile host="65bd71144e">
    <diagram id="C3KeiTxQhkDPNgRZiGcA" name="Page-1">
        <mxGraphModel dx="1369" dy="803" grid="0" gridSize="10" guides="1" tooltips="1" connect="1" arrows="1" fold="1" page="0" pageScale="1" pageWidth="850" pageHeight="1100" background="#1A1A1A" math="0" shadow="0">
            <root>
                <mxCell id="0"/>
                <mxCell id="1" parent="0"/>
                <mxCell id="28" value="RECIPES" style="shape=table;startSize=58;container=1;collapsible=0;childLayout=tableLayout;fontStyle=1;align=center;fontSize=18;resizeLast=1;" parent="1" vertex="1">
                    <mxGeometry x="-281" y="31" width="402" height="262" as="geometry"/>
                </mxCell>
                <mxCell id="29" value="" style="shape=tableRow;horizontal=0;startSize=0;swimlaneHead=0;swimlaneBody=0;top=0;left=0;bottom=0;right=0;collapsible=0;dropTarget=0;fillColor=none;points=[[0,0.5],[1,0.5]];portConstraint=eastwest;" parent="28" vertex="1">
                    <mxGeometry y="58" width="402" height="44" as="geometry"/>
                </mxCell>
                <mxCell id="30" value="id" style="shape=partialRectangle;html=1;whiteSpace=wrap;connectable=0;top=0;left=0;bottom=0;right=0;overflow=hidden;" parent="29" vertex="1">
                    <mxGeometry width="139.75" height="44" as="geometry">
                        <mxRectangle width="139.75" height="44" as="alternateBounds"/>
                    </mxGeometry>
                </mxCell>
                <mxCell id="31" value="name" style="shape=partialRectangle;html=1;whiteSpace=wrap;connectable=0;top=0;left=0;bottom=0;right=0;overflow=hidden;" parent="29" vertex="1">
                    <mxGeometry x="139.75" width="137" height="44" as="geometry">
                        <mxRectangle width="137" height="44" as="alternateBounds"/>
                    </mxGeometry>
                </mxCell>
                <mxCell id="32" value="time" style="shape=partialRectangle;html=1;whiteSpace=wrap;connectable=0;top=0;left=0;bottom=0;right=0;overflow=hidden;" parent="29" vertex="1">
                    <mxGeometry x="276.75" width="125.25" height="44" as="geometry">
                        <mxRectangle width="125.25" height="44" as="alternateBounds"/>
                    </mxGeometry>
                </mxCell>
                <mxCell id="33" value="" style="shape=tableRow;horizontal=0;startSize=0;swimlaneHead=0;swimlaneBody=0;top=0;left=0;bottom=0;right=0;collapsible=0;dropTarget=0;fillColor=none;points=[[0,0.5],[1,0.5]];portConstraint=eastwest;" parent="28" vertex="1">
                    <mxGeometry y="102" width="402" height="79" as="geometry"/>
                </mxCell>
                <mxCell id="34" value="PRIMARY KEY AUTO_INCREMENT" style="shape=partialRectangle;html=1;whiteSpace=wrap;connectable=0;top=0;left=0;bottom=0;right=0;overflow=hidden;" parent="33" vertex="1">
                    <mxGeometry width="139.75" height="79" as="geometry">
                        <mxRectangle width="139.75" height="79" as="alternateBounds"/>
                    </mxGeometry>
                </mxCell>
                <mxCell id="35" value="VARCHAR(255)&lt;br&gt;NOT NULL" style="shape=partialRectangle;html=1;whiteSpace=wrap;connectable=0;top=0;left=0;bottom=0;right=0;overflow=hidden;" parent="33" vertex="1">
                    <mxGeometry x="139.75" width="137" height="79" as="geometry">
                        <mxRectangle width="137" height="79" as="alternateBounds"/>
                    </mxGeometry>
                </mxCell>
                <mxCell id="36" value="VARCHAR(255)&lt;br&gt;NOT NULL" style="shape=partialRectangle;html=1;whiteSpace=wrap;connectable=0;top=0;left=0;bottom=0;right=0;overflow=hidden;" parent="33" vertex="1">
                    <mxGeometry x="276.75" width="125.25" height="79" as="geometry">
                        <mxRectangle width="125.25" height="79" as="alternateBounds"/>
                    </mxGeometry>
                </mxCell>
                <mxCell id="37" value="" style="shape=tableRow;horizontal=0;startSize=0;swimlaneHead=0;swimlaneBody=0;top=0;left=0;bottom=0;right=0;collapsible=0;dropTarget=0;fillColor=none;points=[[0,0.5],[1,0.5]];portConstraint=eastwest;" parent="28" vertex="1">
                    <mxGeometry y="181" width="402" height="81" as="geometry"/>
                </mxCell>
                <mxCell id="38" value="unique primary key user doesnt see" style="shape=partialRectangle;html=1;whiteSpace=wrap;connectable=1;top=0;left=0;bottom=0;right=0;overflow=hidden;movable=1;resizable=1;rotatable=1;deletable=1;editable=1;" parent="37" vertex="1">
                    <mxGeometry width="139.75" height="81" as="geometry">
                        <mxRectangle width="139.75" height="81" as="alternateBounds"/>
                    </mxGeometry>
                </mxCell>
                <mxCell id="39" value="short name defined by user" style="shape=partialRectangle;html=1;whiteSpace=wrap;connectable=1;top=0;left=0;bottom=0;right=0;overflow=hidden;movable=1;resizable=1;rotatable=1;deletable=1;editable=1;" parent="37" vertex="1">
                    <mxGeometry x="139.75" width="137" height="81" as="geometry">
                        <mxRectangle width="137" height="81" as="alternateBounds"/>
                    </mxGeometry>
                </mxCell>
                <mxCell id="40" value="time descriptor defined by user" style="shape=partialRectangle;html=1;whiteSpace=wrap;connectable=1;top=0;left=0;bottom=0;right=0;overflow=hidden;movable=1;resizable=1;rotatable=1;deletable=1;editable=1;" parent="37" vertex="1">
                    <mxGeometry x="276.75" width="125.25" height="81" as="geometry">
                        <mxRectangle width="125.25" height="81" as="alternateBounds"/>
                    </mxGeometry>
                </mxCell>
                <mxCell id="42" value="protein table" style="shape=table;startSize=58;container=1;collapsible=0;childLayout=tableLayout;fontStyle=1;align=center;fontSize=18;" parent="1" vertex="1">
                    <mxGeometry x="404" y="14" width="376" height="306" as="geometry"/>
                </mxCell>
                <mxCell id="43" value="" style="shape=tableRow;horizontal=0;startSize=0;swimlaneHead=0;swimlaneBody=0;top=0;left=0;bottom=0;right=0;collapsible=0;dropTarget=0;fillColor=none;points=[[0,0.5],[1,0.5]];portConstraint=eastwest;" parent="42" vertex="1">
                    <mxGeometry y="58" width="376" height="83" as="geometry"/>
                </mxCell>
                <mxCell id="44" value="protein" style="shape=partialRectangle;html=1;whiteSpace=wrap;connectable=0;top=0;left=0;bottom=0;right=0;overflow=hidden;" parent="43" vertex="1">
                    <mxGeometry width="150" height="83" as="geometry">
                        <mxRectangle width="150" height="83" as="alternateBounds"/>
                    </mxGeometry>
                </mxCell>
                <mxCell id="45" value="protein type" style="shape=partialRectangle;html=1;whiteSpace=wrap;connectable=0;top=0;left=0;bottom=0;right=0;overflow=hidden;" parent="43" vertex="1">
                    <mxGeometry x="150" width="104" height="83" as="geometry">
                        <mxRectangle width="104" height="83" as="alternateBounds"/>
                    </mxGeometry>
                </mxCell>
                <mxCell id="46" value="protein id" style="shape=partialRectangle;html=1;whiteSpace=wrap;connectable=0;top=0;left=0;bottom=0;right=0;overflow=hidden;" parent="43" vertex="1">
                    <mxGeometry x="254" width="122" height="83" as="geometry">
                        <mxRectangle width="122" height="83" as="alternateBounds"/>
                    </mxGeometry>
                </mxCell>
                <mxCell id="47" value="" style="shape=tableRow;horizontal=0;startSize=0;swimlaneHead=0;swimlaneBody=0;top=0;left=0;bottom=0;right=0;collapsible=0;dropTarget=0;fillColor=none;points=[[0,0.5],[1,0.5]];portConstraint=eastwest;" parent="42" vertex="1">
                    <mxGeometry y="141" width="376" height="82" as="geometry"/>
                </mxCell>
                <mxCell id="48" value="beef" style="shape=partialRectangle;html=1;whiteSpace=wrap;connectable=0;top=0;left=0;bottom=0;right=0;overflow=hidden;" parent="47" vertex="1">
                    <mxGeometry width="150" height="82" as="geometry">
                        <mxRectangle width="150" height="82" as="alternateBounds"/>
                    </mxGeometry>
                </mxCell>
                <mxCell id="49" value="minced" style="shape=partialRectangle;html=1;whiteSpace=wrap;connectable=0;top=0;left=0;bottom=0;right=0;overflow=hidden;" parent="47" vertex="1">
                    <mxGeometry x="150" width="104" height="82" as="geometry">
                        <mxRectangle width="104" height="82" as="alternateBounds"/>
                    </mxGeometry>
                </mxCell>
                <mxCell id="50" value="" style="shape=partialRectangle;html=1;whiteSpace=wrap;connectable=0;top=0;left=0;bottom=0;right=0;overflow=hidden;" parent="47" vertex="1">
                    <mxGeometry x="254" width="122" height="82" as="geometry">
                        <mxRectangle width="122" height="82" as="alternateBounds"/>
                    </mxGeometry>
                </mxCell>
                <mxCell id="51" value="" style="shape=tableRow;horizontal=0;startSize=0;swimlaneHead=0;swimlaneBody=0;top=0;left=0;bottom=0;right=0;collapsible=0;dropTarget=0;fillColor=none;points=[[0,0.5],[1,0.5]];portConstraint=eastwest;" parent="42" vertex="1">
                    <mxGeometry y="223" width="376" height="83" as="geometry"/>
                </mxCell>
                <mxCell id="52" value="beef" style="shape=partialRectangle;html=1;whiteSpace=wrap;connectable=0;top=0;left=0;bottom=0;right=0;overflow=hidden;" parent="51" vertex="1">
                    <mxGeometry width="150" height="83" as="geometry">
                        <mxRectangle width="150" height="83" as="alternateBounds"/>
                    </mxGeometry>
                </mxCell>
                <mxCell id="53" value="steak" style="shape=partialRectangle;html=1;whiteSpace=wrap;connectable=0;top=0;left=0;bottom=0;right=0;overflow=hidden;" parent="51" vertex="1">
                    <mxGeometry x="150" width="104" height="83" as="geometry">
                        <mxRectangle width="104" height="83" as="alternateBounds"/>
                    </mxGeometry>
                </mxCell>
                <mxCell id="54" value="" style="shape=partialRectangle;html=1;whiteSpace=wrap;connectable=0;top=0;left=0;bottom=0;right=0;overflow=hidden;" parent="51" vertex="1">
                    <mxGeometry x="254" width="122" height="83" as="geometry">
                        <mxRectangle width="122" height="83" as="alternateBounds"/>
                    </mxGeometry>
                </mxCell>
                <mxCell id="104" value="last three meals" style="shape=table;startSize=58;container=1;collapsible=0;childLayout=tableLayout;fontStyle=1;align=center;fontSize=18;resizeLast=1;" vertex="1" parent="1">
                    <mxGeometry x="-257" y="405" width="402" height="262" as="geometry"/>
                </mxCell>
                <mxCell id="105" value="" style="shape=tableRow;horizontal=0;startSize=0;swimlaneHead=0;swimlaneBody=0;top=0;left=0;bottom=0;right=0;collapsible=0;dropTarget=0;fillColor=none;points=[[0,0.5],[1,0.5]];portConstraint=eastwest;" vertex="1" parent="104">
                    <mxGeometry y="58" width="402" height="44" as="geometry"/>
                </mxCell>
                <mxCell id="106" value="recipe id" style="shape=partialRectangle;html=1;whiteSpace=wrap;connectable=0;top=0;left=0;bottom=0;right=0;overflow=hidden;" vertex="1" parent="105">
                    <mxGeometry width="139.75" height="44" as="geometry">
                        <mxRectangle width="139.75" height="44" as="alternateBounds"/>
                    </mxGeometry>
                </mxCell>
                <mxCell id="107" value="" style="shape=partialRectangle;html=1;whiteSpace=wrap;connectable=0;top=0;left=0;bottom=0;right=0;overflow=hidden;" vertex="1" parent="105">
                    <mxGeometry x="139.75" width="137" height="44" as="geometry">
                        <mxRectangle width="137" height="44" as="alternateBounds"/>
                    </mxGeometry>
                </mxCell>
                <mxCell id="108" value="" style="shape=partialRectangle;html=1;whiteSpace=wrap;connectable=0;top=0;left=0;bottom=0;right=0;overflow=hidden;" vertex="1" parent="105">
                    <mxGeometry x="276.75" width="125.25" height="44" as="geometry">
                        <mxRectangle width="125.25" height="44" as="alternateBounds"/>
                    </mxGeometry>
                </mxCell>
                <mxCell id="109" value="" style="shape=tableRow;horizontal=0;startSize=0;swimlaneHead=0;swimlaneBody=0;top=0;left=0;bottom=0;right=0;collapsible=0;dropTarget=0;fillColor=none;points=[[0,0.5],[1,0.5]];portConstraint=eastwest;" vertex="1" parent="104">
                    <mxGeometry y="102" width="402" height="79" as="geometry"/>
                </mxCell>
                <mxCell id="110" value="FK for recipes -&amp;gt; id" style="shape=partialRectangle;html=1;whiteSpace=wrap;connectable=0;top=0;left=0;bottom=0;right=0;overflow=hidden;" vertex="1" parent="109">
                    <mxGeometry width="139.75" height="79" as="geometry">
                        <mxRectangle width="139.75" height="79" as="alternateBounds"/>
                    </mxGeometry>
                </mxCell>
                <mxCell id="111" value="" style="shape=partialRectangle;html=1;whiteSpace=wrap;connectable=0;top=0;left=0;bottom=0;right=0;overflow=hidden;" vertex="1" parent="109">
                    <mxGeometry x="139.75" width="137" height="79" as="geometry">
                        <mxRectangle width="137" height="79" as="alternateBounds"/>
                    </mxGeometry>
                </mxCell>
                <mxCell id="112" value="" style="shape=partialRectangle;html=1;whiteSpace=wrap;connectable=0;top=0;left=0;bottom=0;right=0;overflow=hidden;" vertex="1" parent="109">
                    <mxGeometry x="276.75" width="125.25" height="79" as="geometry">
                        <mxRectangle width="125.25" height="79" as="alternateBounds"/>
                    </mxGeometry>
                </mxCell>
                <mxCell id="113" value="" style="shape=tableRow;horizontal=0;startSize=0;swimlaneHead=0;swimlaneBody=0;top=0;left=0;bottom=0;right=0;collapsible=0;dropTarget=0;fillColor=none;points=[[0,0.5],[1,0.5]];portConstraint=eastwest;" vertex="1" parent="104">
                    <mxGeometry y="181" width="402" height="81" as="geometry"/>
                </mxCell>
                <mxCell id="114" value="" style="shape=partialRectangle;html=1;whiteSpace=wrap;connectable=1;top=0;left=0;bottom=0;right=0;overflow=hidden;movable=1;resizable=1;rotatable=1;deletable=1;editable=1;" vertex="1" parent="113">
                    <mxGeometry width="139.75" height="81" as="geometry">
                        <mxRectangle width="139.75" height="81" as="alternateBounds"/>
                    </mxGeometry>
                </mxCell>
                <mxCell id="115" value="" style="shape=partialRectangle;html=1;whiteSpace=wrap;connectable=1;top=0;left=0;bottom=0;right=0;overflow=hidden;movable=1;resizable=1;rotatable=1;deletable=1;editable=1;" vertex="1" parent="113">
                    <mxGeometry x="139.75" width="137" height="81" as="geometry">
                        <mxRectangle width="137" height="81" as="alternateBounds"/>
                    </mxGeometry>
                </mxCell>
                <mxCell id="116" value="" style="shape=partialRectangle;html=1;whiteSpace=wrap;connectable=1;top=0;left=0;bottom=0;right=0;overflow=hidden;movable=1;resizable=1;rotatable=1;deletable=1;editable=1;" vertex="1" parent="113">
                    <mxGeometry x="276.75" width="125.25" height="81" as="geometry">
                        <mxRectangle width="125.25" height="81" as="alternateBounds"/>
                    </mxGeometry>
                </mxCell>
                <mxCell id="117" value="Recipe Links" style="shape=table;startSize=58;container=1;collapsible=0;childLayout=tableLayout;fontStyle=1;align=center;fontSize=18;resizeLast=1;" vertex="1" parent="1">
                    <mxGeometry x="196" y="403" width="402" height="262" as="geometry"/>
                </mxCell>
                <mxCell id="118" value="" style="shape=tableRow;horizontal=0;startSize=0;swimlaneHead=0;swimlaneBody=0;top=0;left=0;bottom=0;right=0;collapsible=0;dropTarget=0;fillColor=none;points=[[0,0.5],[1,0.5]];portConstraint=eastwest;" vertex="1" parent="117">
                    <mxGeometry y="58" width="402" height="44" as="geometry"/>
                </mxCell>
                <mxCell id="119" value="id" style="shape=partialRectangle;html=1;whiteSpace=wrap;connectable=0;top=0;left=0;bottom=0;right=0;overflow=hidden;" vertex="1" parent="118">
                    <mxGeometry width="139.75" height="44" as="geometry">
                        <mxRectangle width="139.75" height="44" as="alternateBounds"/>
                    </mxGeometry>
                </mxCell>
                <mxCell id="120" value="URL" style="shape=partialRectangle;html=1;whiteSpace=wrap;connectable=0;top=0;left=0;bottom=0;right=0;overflow=hidden;" vertex="1" parent="118">
                    <mxGeometry x="139.75" width="137" height="44" as="geometry">
                        <mxRectangle width="137" height="44" as="alternateBounds"/>
                    </mxGeometry>
                </mxCell>
                <mxCell id="121" value="" style="shape=partialRectangle;html=1;whiteSpace=wrap;connectable=0;top=0;left=0;bottom=0;right=0;overflow=hidden;" vertex="1" parent="118">
                    <mxGeometry x="276.75" width="125.25" height="44" as="geometry">
                        <mxRectangle width="125.25" height="44" as="alternateBounds"/>
                    </mxGeometry>
                </mxCell>
                <mxCell id="122" value="" style="shape=tableRow;horizontal=0;startSize=0;swimlaneHead=0;swimlaneBody=0;top=0;left=0;bottom=0;right=0;collapsible=0;dropTarget=0;fillColor=none;points=[[0,0.5],[1,0.5]];portConstraint=eastwest;" vertex="1" parent="117">
                    <mxGeometry y="102" width="402" height="79" as="geometry"/>
                </mxCell>
                <mxCell id="123" value="PRIMARY KEY AUTO_INCREMENT" style="shape=partialRectangle;html=1;whiteSpace=wrap;connectable=0;top=0;left=0;bottom=0;right=0;overflow=hidden;" vertex="1" parent="122">
                    <mxGeometry width="139.75" height="79" as="geometry">
                        <mxRectangle width="139.75" height="79" as="alternateBounds"/>
                    </mxGeometry>
                </mxCell>
                <mxCell id="124" value="VARCHAR(255)&lt;br&gt;NOT NULL" style="shape=partialRectangle;html=1;whiteSpace=wrap;connectable=0;top=0;left=0;bottom=0;right=0;overflow=hidden;" vertex="1" parent="122">
                    <mxGeometry x="139.75" width="137" height="79" as="geometry">
                        <mxRectangle width="137" height="79" as="alternateBounds"/>
                    </mxGeometry>
                </mxCell>
                <mxCell id="125" value="" style="shape=partialRectangle;html=1;whiteSpace=wrap;connectable=0;top=0;left=0;bottom=0;right=0;overflow=hidden;" vertex="1" parent="122">
                    <mxGeometry x="276.75" width="125.25" height="79" as="geometry">
                        <mxRectangle width="125.25" height="79" as="alternateBounds"/>
                    </mxGeometry>
                </mxCell>
                <mxCell id="126" value="" style="shape=tableRow;horizontal=0;startSize=0;swimlaneHead=0;swimlaneBody=0;top=0;left=0;bottom=0;right=0;collapsible=0;dropTarget=0;fillColor=none;points=[[0,0.5],[1,0.5]];portConstraint=eastwest;" vertex="1" parent="117">
                    <mxGeometry y="181" width="402" height="81" as="geometry"/>
                </mxCell>
                <mxCell id="127" value="" style="shape=partialRectangle;html=1;whiteSpace=wrap;connectable=1;top=0;left=0;bottom=0;right=0;overflow=hidden;movable=1;resizable=1;rotatable=1;deletable=1;editable=1;" vertex="1" parent="126">
                    <mxGeometry width="139.75" height="81" as="geometry">
                        <mxRectangle width="139.75" height="81" as="alternateBounds"/>
                    </mxGeometry>
                </mxCell>
                <mxCell id="128" value="" style="shape=partialRectangle;html=1;whiteSpace=wrap;connectable=1;top=0;left=0;bottom=0;right=0;overflow=hidden;movable=1;resizable=1;rotatable=1;deletable=1;editable=1;" vertex="1" parent="126">
                    <mxGeometry x="139.75" width="137" height="81" as="geometry">
                        <mxRectangle width="137" height="81" as="alternateBounds"/>
                    </mxGeometry>
                </mxCell>
                <mxCell id="129" value="" style="shape=partialRectangle;html=1;whiteSpace=wrap;connectable=1;top=0;left=0;bottom=0;right=0;overflow=hidden;movable=1;resizable=1;rotatable=1;deletable=1;editable=1;" vertex="1" parent="126">
                    <mxGeometry x="276.75" width="125.25" height="81" as="geometry">
                        <mxRectangle width="125.25" height="81" as="alternateBounds"/>
                    </mxGeometry>
                </mxCell>
                <mxCell id="130" value="" style="shape=table;html=1;whiteSpace=wrap;startSize=0;container=1;collapsible=0;childLayout=tableLayout;" vertex="1" parent="1">
                    <mxGeometry x="121" y="90" width="218.75" height="202.75" as="geometry"/>
                </mxCell>
                <mxCell id="131" value="" style="shape=tableRow;horizontal=0;startSize=0;swimlaneHead=0;swimlaneBody=0;top=0;left=0;bottom=0;right=0;collapsible=0;dropTarget=0;fillColor=none;points=[[0,0.5],[1,0.5]];portConstraint=eastwest;" vertex="1" parent="130">
                    <mxGeometry width="218.75" height="43" as="geometry"/>
                </mxCell>
                <mxCell id="132" value="protein type&lt;br&gt;id" style="shape=partialRectangle;html=1;whiteSpace=wrap;connectable=0;fillColor=none;top=0;left=0;bottom=0;right=0;overflow=hidden;" vertex="1" parent="131">
                    <mxGeometry width="83" height="43" as="geometry">
                        <mxRectangle width="83" height="43" as="alternateBounds"/>
                    </mxGeometry>
                </mxCell>
                <mxCell id="133" value="carbs type&lt;br&gt;id" style="shape=partialRectangle;html=1;whiteSpace=wrap;connectable=0;fillColor=none;top=0;left=0;bottom=0;right=0;overflow=hidden;" vertex="1" parent="131">
                    <mxGeometry x="83" width="71" height="43" as="geometry">
                        <mxRectangle width="71" height="43" as="alternateBounds"/>
                    </mxGeometry>
                </mxCell>
                <mxCell id="134" value="recipe id" style="shape=partialRectangle;html=1;whiteSpace=wrap;connectable=0;fillColor=none;top=0;left=0;bottom=0;right=0;overflow=hidden;" vertex="1" parent="131">
                    <mxGeometry x="154" width="65" height="43" as="geometry">
                        <mxRectangle width="65" height="43" as="alternateBounds"/>
                    </mxGeometry>
                </mxCell>
                <mxCell id="135" value="" style="shape=tableRow;horizontal=0;startSize=0;swimlaneHead=0;swimlaneBody=0;top=0;left=0;bottom=0;right=0;collapsible=0;dropTarget=0;fillColor=none;points=[[0,0.5],[1,0.5]];portConstraint=eastwest;" vertex="1" parent="130">
                    <mxGeometry y="43" width="218.75" height="79" as="geometry"/>
                </mxCell>
                <mxCell id="136" value="integer" style="shape=partialRectangle;html=1;whiteSpace=wrap;connectable=0;fillColor=none;top=0;left=0;bottom=0;right=0;overflow=hidden;" vertex="1" parent="135">
                    <mxGeometry width="83" height="79" as="geometry">
                        <mxRectangle width="83" height="79" as="alternateBounds"/>
                    </mxGeometry>
                </mxCell>
                <mxCell id="137" value="integer" style="shape=partialRectangle;html=1;whiteSpace=wrap;connectable=0;fillColor=none;top=0;left=0;bottom=0;right=0;overflow=hidden;" vertex="1" parent="135">
                    <mxGeometry x="83" width="71" height="79" as="geometry">
                        <mxRectangle width="71" height="79" as="alternateBounds"/>
                    </mxGeometry>
                </mxCell>
                <mxCell id="138" value="integer" style="shape=partialRectangle;html=1;whiteSpace=wrap;connectable=0;fillColor=none;top=0;left=0;bottom=0;right=0;overflow=hidden;" vertex="1" parent="135">
                    <mxGeometry x="154" width="65" height="79" as="geometry">
                        <mxRectangle width="65" height="79" as="alternateBounds"/>
                    </mxGeometry>
                </mxCell>
                <mxCell id="139" value="" style="shape=tableRow;horizontal=0;startSize=0;swimlaneHead=0;swimlaneBody=0;top=0;left=0;bottom=0;right=0;collapsible=0;dropTarget=0;fillColor=none;points=[[0,0.5],[1,0.5]];portConstraint=eastwest;" vertex="1" parent="130">
                    <mxGeometry y="122" width="218.75" height="81" as="geometry"/>
                </mxCell>
                <mxCell id="140" value="" style="shape=partialRectangle;html=1;whiteSpace=wrap;connectable=0;fillColor=none;top=0;left=0;bottom=0;right=0;overflow=hidden;" vertex="1" parent="139">
                    <mxGeometry width="83" height="81" as="geometry">
                        <mxRectangle width="83" height="81" as="alternateBounds"/>
                    </mxGeometry>
                </mxCell>
                <mxCell id="141" value="" style="shape=partialRectangle;html=1;whiteSpace=wrap;connectable=0;fillColor=none;top=0;left=0;bottom=0;right=0;overflow=hidden;" vertex="1" parent="139">
                    <mxGeometry x="83" width="71" height="81" as="geometry">
                        <mxRectangle width="71" height="81" as="alternateBounds"/>
                    </mxGeometry>
                </mxCell>
                <mxCell id="142" value="" style="shape=partialRectangle;html=1;whiteSpace=wrap;connectable=0;fillColor=none;top=0;left=0;bottom=0;right=0;overflow=hidden;pointerEvents=1;" vertex="1" parent="139">
                    <mxGeometry x="154" width="65" height="81" as="geometry">
                        <mxRectangle width="65" height="81" as="alternateBounds"/>
                    </mxGeometry>
                </mxCell>
                <mxCell id="156" value="carbs table" style="shape=table;startSize=58;container=1;collapsible=0;childLayout=tableLayout;fontStyle=1;align=center;fontSize=18;" vertex="1" parent="1">
                    <mxGeometry x="802" y="12" width="376" height="306" as="geometry"/>
                </mxCell>
                <mxCell id="157" value="" style="shape=tableRow;horizontal=0;startSize=0;swimlaneHead=0;swimlaneBody=0;top=0;left=0;bottom=0;right=0;collapsible=0;dropTarget=0;fillColor=none;points=[[0,0.5],[1,0.5]];portConstraint=eastwest;" vertex="1" parent="156">
                    <mxGeometry y="58" width="376" height="83" as="geometry"/>
                </mxCell>
                <mxCell id="158" value="carbs" style="shape=partialRectangle;html=1;whiteSpace=wrap;connectable=0;top=0;left=0;bottom=0;right=0;overflow=hidden;" vertex="1" parent="157">
                    <mxGeometry width="150" height="83" as="geometry">
                        <mxRectangle width="150" height="83" as="alternateBounds"/>
                    </mxGeometry>
                </mxCell>
                <mxCell id="159" value="carbs type" style="shape=partialRectangle;html=1;whiteSpace=wrap;connectable=0;top=0;left=0;bottom=0;right=0;overflow=hidden;" vertex="1" parent="157">
                    <mxGeometry x="150" width="104" height="83" as="geometry">
                        <mxRectangle width="104" height="83" as="alternateBounds"/>
                    </mxGeometry>
                </mxCell>
                <mxCell id="160" value="carbs id" style="shape=partialRectangle;html=1;whiteSpace=wrap;connectable=0;top=0;left=0;bottom=0;right=0;overflow=hidden;" vertex="1" parent="157">
                    <mxGeometry x="254" width="122" height="83" as="geometry">
                        <mxRectangle width="122" height="83" as="alternateBounds"/>
                    </mxGeometry>
                </mxCell>
                <mxCell id="161" value="" style="shape=tableRow;horizontal=0;startSize=0;swimlaneHead=0;swimlaneBody=0;top=0;left=0;bottom=0;right=0;collapsible=0;dropTarget=0;fillColor=none;points=[[0,0.5],[1,0.5]];portConstraint=eastwest;" vertex="1" parent="156">
                    <mxGeometry y="141" width="376" height="82" as="geometry"/>
                </mxCell>
                <mxCell id="162" value="beef" style="shape=partialRectangle;html=1;whiteSpace=wrap;connectable=0;top=0;left=0;bottom=0;right=0;overflow=hidden;" vertex="1" parent="161">
                    <mxGeometry width="150" height="82" as="geometry">
                        <mxRectangle width="150" height="82" as="alternateBounds"/>
                    </mxGeometry>
                </mxCell>
                <mxCell id="163" value="" style="shape=partialRectangle;html=1;whiteSpace=wrap;connectable=0;top=0;left=0;bottom=0;right=0;overflow=hidden;" vertex="1" parent="161">
                    <mxGeometry x="150" width="104" height="82" as="geometry">
                        <mxRectangle width="104" height="82" as="alternateBounds"/>
                    </mxGeometry>
                </mxCell>
                <mxCell id="164" value="" style="shape=partialRectangle;html=1;whiteSpace=wrap;connectable=0;top=0;left=0;bottom=0;right=0;overflow=hidden;" vertex="1" parent="161">
                    <mxGeometry x="254" width="122" height="82" as="geometry">
                        <mxRectangle width="122" height="82" as="alternateBounds"/>
                    </mxGeometry>
                </mxCell>
                <mxCell id="165" value="" style="shape=tableRow;horizontal=0;startSize=0;swimlaneHead=0;swimlaneBody=0;top=0;left=0;bottom=0;right=0;collapsible=0;dropTarget=0;fillColor=none;points=[[0,0.5],[1,0.5]];portConstraint=eastwest;" vertex="1" parent="156">
                    <mxGeometry y="223" width="376" height="83" as="geometry"/>
                </mxCell>
                <mxCell id="166" value="beef" style="shape=partialRectangle;html=1;whiteSpace=wrap;connectable=0;top=0;left=0;bottom=0;right=0;overflow=hidden;" vertex="1" parent="165">
                    <mxGeometry width="150" height="83" as="geometry">
                        <mxRectangle width="150" height="83" as="alternateBounds"/>
                    </mxGeometry>
                </mxCell>
                <mxCell id="167" value="" style="shape=partialRectangle;html=1;whiteSpace=wrap;connectable=0;top=0;left=0;bottom=0;right=0;overflow=hidden;" vertex="1" parent="165">
                    <mxGeometry x="150" width="104" height="83" as="geometry">
                        <mxRectangle width="104" height="83" as="alternateBounds"/>
                    </mxGeometry>
                </mxCell>
                <mxCell id="168" value="" style="shape=partialRectangle;html=1;whiteSpace=wrap;connectable=0;top=0;left=0;bottom=0;right=0;overflow=hidden;" vertex="1" parent="165">
                    <mxGeometry x="254" width="122" height="83" as="geometry">
                        <mxRectangle width="122" height="83" as="alternateBounds"/>
                    </mxGeometry>
                </mxCell>
            </root>
        </mxGraphModel>
    </diagram>
</mxfile>